<?xml version="1.0" encoding="UTF-8" standalone="no"?>
<svg
   width="238.90344"
   height="33.396908"
   viewBox="0 0 199.99999 27.958497"
   class="css-1j8o68f"
   version="1.1"
   id="svg16"
   sodipodi:docname="logo.svg"
   xmlns:inkscape="http://www.inkscape.org/namespaces/inkscape"
   xmlns:sodipodi="http://sodipodi.sourceforge.net/DTD/sodipodi-0.dtd"
   xmlns:xlink="http://www.w3.org/1999/xlink"
   xmlns="http://www.w3.org/2000/svg"
   xmlns:svg="http://www.w3.org/2000/svg">
  <sodipodi:namedview
     id="namedview18"
     pagecolor="#ffffff"
     bordercolor="#000000"
     borderopacity="0.25"
     inkscape:showpageshadow="2"
     inkscape:pageopacity="0.0"
     inkscape:pagecheckerboard="0"
     inkscape:deskcolor="#d1d1d1"
     showgrid="false" />
  <defs
     id="SvgjsDefs1176">
    <linearGradient
       inkscape:collect="always"
       id="linearGradient1616">
      <stop
         style="stop-color:#646cff;stop-opacity:1;"
         offset="0"
         id="stop1612" />
      <stop
         style="stop-color:#bd34fe;stop-opacity:1;"
         offset="1"
         id="stop1614" />
    </linearGradient>
    <linearGradient
       inkscape:collect="always"
       xlink:href="#linearGradient1616"
       id="linearGradient1618"
       x1="0"
       y1="25.5"
       x2="210.884"
       y2="25.5"
       gradientUnits="userSpaceOnUse" />
    <linearGradient
       inkscape:collect="always"
       xlink:href="#linearGradient1616"
       id="linearGradient1620"
       gradientUnits="userSpaceOnUse"
       x1="0"
       y1="25.5"
       x2="210.884"
       y2="25.5" />
  </defs>
  <g
     id="SvgjsG1179"
     featurekey="nameFeature-0"
     transform="matrix(0.94838864,0,0,0.94838864,6.9677734e-6,-10.20466)"
     fill="#3e4e88"
     style="fill:url(#linearGradient1618);fill-opacity:1">
    <path
       d="M 5.36,39.92 C 2.4,39.92 0,37.52 0,34.56 V 16.8 c 0,-2.96 2.4,-5.36 5.36,-5.36 2.96,0 5.36,2.4 5.36,5.36 v 1.6 h -3.8 v -1.6 c 0,-0.84 -0.72,-1.56 -1.56,-1.56 -0.84,0 -1.56,0.72 -1.56,1.56 v 17.76 c 0,0.84 0.72,1.56 1.56,1.56 0.84,0 1.56,-0.72 1.56,-1.56 V 32 h 3.8 v 2.56 c 0,2.96 -2.4,5.36 -5.36,5.36 z m 20.348,0.16 h -4.08 l -2.2,-6.04 h -0.88 v 6.04 h -3.8 V 11.44 h 5.96 c 2.64,0 4.76,2.12 4.76,4.76 v 13.08 c 0,1.72 -0.88,3.2 -2.24,4.04 z m -7.16,-24.84 v 15 h 2.16 c 0.52,0 0.96,-0.44 0.96,-0.96 V 16.2 c 0,-0.52 -0.44,-0.96 -0.96,-0.96 z m 24.108,-3.8 -5.36,17.36 V 40 h -3.88 V 28.76 l -4.92,-17.32 h 4 l 2.92,10.28 3.2,-10.28 z M 50.484,34 v 5.96 h -3.8 V 11.44 h 5.92 c 2.64,0 4.76,2.16 4.76,4.8 v 13 c 0,2.64 -2.12,4.76 -4.76,4.76 z m 0,-18.76 V 30.2 h 2.12 c 0.56,0 0.96,-0.4 0.96,-0.96 v -13 c 0,-0.56 -0.4,-1 -0.96,-1 z m 24.748,-3.88 v 3.84 h -4.76 v 24.84 h -3.84 V 15.2 h -5.24 V 11.36 Z M 83.5,40.04 c -3,0 -5.4,-2.44 -5.4,-5.4 V 16.68 c 0,-2.96 2.4,-5.36 5.4,-5.36 2.96,0 5.36,2.4 5.36,5.36 v 17.96 c 0,2.96 -2.4,5.4 -5.36,5.4 z m 0,-24.92 c -0.88,0 -1.56,0.72 -1.56,1.56 v 17.96 c 0,0.88 0.68,1.56 1.56,1.56 0.84,0 1.56,-0.68 1.56,-1.56 V 16.68 c 0,-0.84 -0.72,-1.56 -1.56,-1.56 z m 24.776,24.8 c -2.96,0 -5.36,-2.4 -5.36,-5.36 V 16.8 c 0,-2.96 2.4,-5.36 5.36,-5.36 2.96,0 5.36,2.4 5.36,5.36 v 1.6 h -3.8 v -1.6 c 0,-0.84 -0.72,-1.56 -1.56,-1.56 -0.84,0 -1.56,0.72 -1.56,1.56 v 17.76 c 0,0.84 0.72,1.56 1.56,1.56 0.84,0 1.56,-0.72 1.56,-1.56 V 32 h 3.8 v 2.56 c 0,2.96 -2.4,5.36 -5.36,5.36 z m 14.788,0.12 c -3,0 -5.4,-2.44 -5.4,-5.4 V 16.68 c 0,-2.96 2.4,-5.36 5.4,-5.36 2.96,0 5.36,2.4 5.36,5.36 v 17.96 c 0,2.96 -2.4,5.4 -5.36,5.4 z m 0,-24.92 c -0.88,0 -1.56,0.72 -1.56,1.56 v 17.96 c 0,0.88 0.68,1.56 1.56,1.56 0.84,0 1.56,-0.68 1.56,-1.56 V 16.68 c 0,-0.84 -0.72,-1.56 -1.56,-1.56 z m 20.988,-3.76 h 6.68 v 28.56 h -3.76 V 17.32 L 143.412,40 h -1.48 l -0.36,-0.08 -0.32,0.08 h -1.48 l -3.52,-22.68 v 22.6 h -3.8 V 11.36 h 6.72 l 2.44,16.16 z M 158.56,34 v 5.96 h -3.8 V 11.44 h 5.92 c 2.64,0 4.76,2.16 4.76,4.8 v 13 c 0,2.64 -2.12,4.76 -4.76,4.76 z m 0,-18.76 V 30.2 h 2.12 c 0.56,0 0.96,-0.4 0.96,-0.96 v -13 c 0,-0.56 -0.4,-1 -0.96,-1 z m 20.068,24.76 -1.44,-9.88 h -4.04 l -1.32,9.88 h -3.84 l 4.32,-28.6 h 5.16 l 5,28.6 z m -4.96,-13.68 h 2.96 l -1.52,-10.4 z m 16.828,13.92 c -3.04,0 -5.48,-2.48 -5.48,-5.48 V 30.4 h 3.88 v 4.36 c 0,0.88 0.72,1.6 1.6,1.6 0.88,0 1.56,-0.72 1.56,-1.6 v -3.8 l -7.04,-9.72 v -4.96 c 0,-3.04 2.44,-5.52 5.48,-5.52 3,0 5.44,2.48 5.44,5.52 v 4.32 h -3.88 v -4.32 c 0,-0.92 -0.68,-1.6 -1.56,-1.6 -0.88,0 -1.6,0.68 -1.6,1.6 v 3.64 l 7.04,9.72 v 5.12 c 0,3 -2.44,5.48 -5.44,5.48 z m 14.948,0 c -3.04,0 -5.48,-2.48 -5.48,-5.48 V 30.4 h 3.88 v 4.36 c 0,0.88 0.72,1.6 1.6,1.6 0.88,0 1.56,-0.72 1.56,-1.6 v -3.8 l -7.04,-9.72 v -4.96 c 0,-3.04 2.44,-5.52 5.48,-5.52 3,0 5.44,2.48 5.44,5.52 v 4.32 h -3.88 v -4.32 c 0,-0.92 -0.68,-1.6 -1.56,-1.6 -0.88,0 -1.6,0.68 -1.6,1.6 v 3.64 l 7.04,9.72 v 5.12 c 0,3 -2.44,5.48 -5.44,5.48 z"
       id="path13"
       style="fill:url(#linearGradient1620);fill-opacity:1" />
  </g>
</svg>
